<?xml version="1.0" standalone="no"?>
<!DOCTYPE svg PUBLIC "-//W3C//DTD SVG 20010904//EN"
 "http://www.w3.org/TR/2001/REC-SVG-20010904/DTD/svg10.dtd">
<svg version="1.0" xmlns="http://www.w3.org/2000/svg"
 width="500.000000pt" height="500.000000pt" viewBox="0 0 500.000000 500.000000"
 preserveAspectRatio="xMidYMid meet">
<metadata>
Created by potrace 1.16, written by Peter Selinger 2001-2019
</metadata>
<g transform="translate(0.000000,500.000000) scale(0.100000,-0.100000)"
fill="#000000" stroke="none">
<path d="M2290 4156 c-91 -21 -165 -63 -225 -128 -93 -100 -115 -164 -115
-335 l0 -113 44 0 43 0 5 113 c5 116 25 185 71 249 32 44 150 118 189 118 5 0
-11 -23 -36 -50 -70 -79 -88 -137 -97 -320 -4 -85 -8 -216 -8 -290 -1 -148 8
-180 53 -180 49 0 51 15 48 275 -4 269 2 322 49 409 29 54 90 109 151 136 23
11 32 9 73 -15 120 -70 165 -156 173 -332 l5 -113 44 0 45 0 -4 138 c-3 123
-6 143 -29 193 -15 31 -43 74 -63 96 -20 22 -36 43 -36 46 0 12 67 -15 112
-45 51 -35 98 -92 126 -155 15 -33 16 -72 14 -312 -2 -234 -1 -277 13 -297 18
-28 56 -32 80 -7 15 14 16 46 13 302 -4 269 -5 289 -26 340 -77 183 -230 287
-414 282 -43 -1 -88 -2 -100 -3 -13 -1 -50 1 -83 5 -37 4 -81 1 -115 -7z"/>
<path d="M3403 1663 c-3 -10 -13 -27 -22 -37 -12 -14 -13 -20 -3 -23 7 -3 12
-24 12 -54 0 -73 12 -89 65 -89 41 0 45 2 45 25 0 16 -4 23 -13 19 -21 -8 -39
21 -35 58 2 25 8 34 26 36 29 4 31 42 1 42 -12 0 -23 8 -26 20 -7 25 -41 26
-50 3z"/>
<path d="M3065 1641 c-27 -6 -31 -11 -26 -40 0 -6 16 -7 35 -4 46 7 55 -13 9
-22 -59 -11 -73 -22 -73 -58 0 -41 15 -57 55 -57 17 0 36 5 43 12 9 9 15 9 24
0 7 -7 20 -12 30 -12 16 0 18 9 18 69 0 98 -33 130 -115 112z"/>
</g>
</svg>
